<?xml version="1.0" standalone="no"?>
<!DOCTYPE svg PUBLIC "-//W3C//DTD SVG 20010904//EN"
 "http://www.w3.org/TR/2001/REC-SVG-20010904/DTD/svg10.dtd">
<svg version="1.0" xmlns="http://www.w3.org/2000/svg"
 width="200.000000pt" height="200.000000pt" viewBox="0 0 200.000000 200.000000"
 preserveAspectRatio="xMidYMid meet">
<metadata>
Created by potrace 1.11, written by Peter Selinger 2001-2013
</metadata>
<g transform="translate(0.000000,200.000000) scale(0.100000,-0.100000)"
fill="#000000" stroke="none">
<path d="M324 1706 c-138 -43 -216 -154 -216 -307 0 -142 38 -215 231 -448
157 -189 194 -244 206 -299 12 -57 7 -132 -10 -159 -35 -53 -129 -66 -184 -26
-37 28 -60 103 -61 199 l0 81 -84 0 -83 0 -11 -46 c-6 -25 -10 -84 -8 -131 5
-137 48 -209 155 -259 50 -23 68 -26 166 -26 135 0 192 21 260 97 57 64 80
130 78 233 -1 143 -64 256 -280 505 -59 68 -135 169 -150 200 -12 23 -18 58
-18 102 0 59 3 71 26 94 31 31 95 42 139 24 54 -22 91 -118 86 -220 -4 -69 -3
-70 85 -70 l78 0 11 41 c17 62 18 168 2 223 -30 106 -89 163 -202 194 -38 10
-179 9 -216 -2z"/>
<path d="M949 1672 c0 -47 0 -1306 0 -1350 l1 -33 98 3 97 3 -1 410 c0 387 -8
658 -19 676 -3 4 -1 10 4 14 10 6 20 -24 41 -120 11 -51 20 -90 85 -365 21
-85 39 -164 41 -175 2 -11 17 -74 32 -140 l29 -120 68 0 68 0 13 55 c7 30 22
96 34 145 11 50 22 99 24 110 3 11 23 99 45 195 23 96 53 227 68 290 29 132
47 166 39 75 -3 -33 -9 -283 -12 -557 l-7 -496 102 0 101 -1 0 708 0 708 -137
-1 -138 -1 -62 -245 c-71 -276 -110 -446 -117 -505 -8 -70 -19 -126 -23 -121
-2 2 -8 32 -13 67 -24 167 -28 186 -115 536 l-68 273 -139 -1 -138 0 -1 -37z"/>
</g>
</svg>
